<?xml version="1.0" encoding="UTF-8"?><svg xmlns="http://www.w3.org/2000/svg" xmlns:xlink="http://www.w3.org/1999/xlink" viewBox="0 0 50 50" version="1.1"><path d="M40 2H12C9.242 2 7 4.242 7 7v36c0 2.758 2.242 5 5 5h28c2.758 0 5-2.242 5-5V7c0-2.758-2.242-5-5-5zM16.559 40.914v-9.95l4.976 4.977zm18.703.031h-4.766V23.473s1.137-4.184-14 1.71c-.027.075-.027-16.16-.027-16.16l4.945-.027v10.399s13.848-5.454 13.848 4.136zm-1.95-25.656h-5.246c1.891-2.309 3.598-6.266 3.598-6.266h5.426s-.93 2.579-3.778 6.266z" id="surface1"/><metadata><rdf:RDF xmlns:rdf="http://www.w3.org/1999/02/22-rdf-syntax-ns#" xmlns:rdfs="http://www.w3.org/2000/01/rdf-schema#" xmlns:dc="http://purl.org/dc/elements/1.1/"><rdf:Description about="https://iconscout.com/legal#licenses" dc:title="heroku,filled" dc:description="heroku,filled" dc:publisher="Iconscout" dc:date="2017-12-09" dc:format="image/svg+xml" dc:language="en"><dc:creator><rdf:Bag><rdf:li>Icons8</rdf:li></rdf:Bag></dc:creator></rdf:Description></rdf:RDF></metadata></svg>