<?xml version="1.0" encoding="UTF-8" standalone="no"?>
<!DOCTYPE svg PUBLIC "-//W3C//DTD SVG 1.1//EN" "http://www.w3.org/Graphics/SVG/1.1/DTD/svg11.dtd">
<svg version="1.1" xmlns="http://www.w3.org/2000/svg" xmlns:xlink="http://www.w3.org/1999/xlink" preserveAspectRatio="xMidYMid meet" viewBox="0 0 640 640" width="640" height="640"><defs><path d="M517.24 25.81L519.82 26.07L522.37 26.44L524.89 26.9L527.37 27.46L529.81 28.12L532.21 28.87L534.57 29.71L536.89 30.64L539.17 31.65L541.39 32.75L543.57 33.94L545.69 35.2L547.76 36.54L549.78 37.96L551.74 39.45L553.63 41.02L555.47 42.66L557.24 44.36L558.94 46.13L560.58 47.97L562.15 49.86L563.64 51.82L565.06 53.84L566.4 55.91L567.66 58.03L568.85 60.21L569.95 62.43L570.96 64.71L571.89 67.03L572.73 69.39L573.48 71.79L574.14 74.23L574.7 76.71L575.16 79.23L575.53 81.78L575.79 84.36L575.95 86.97L576 89.6L576 550.4L575.95 553.03L575.79 555.64L575.53 558.22L575.16 560.77L574.7 563.29L574.14 565.77L573.48 568.21L572.73 570.61L571.89 572.97L570.96 575.29L569.95 577.57L568.85 579.79L567.66 581.97L566.4 584.09L565.06 586.16L563.64 588.18L562.15 590.14L560.58 592.03L558.94 593.87L557.24 595.64L555.47 597.34L553.63 598.98L551.74 600.55L549.78 602.04L547.76 603.46L545.69 604.8L543.57 606.06L541.39 607.25L539.17 608.35L536.89 609.36L534.57 610.29L532.21 611.13L529.81 611.88L527.37 612.54L524.89 613.1L522.37 613.56L519.82 613.93L517.24 614.19L514.63 614.35L512 614.4L153.6 614.4L150.97 614.35L148.36 614.19L145.78 613.93L143.23 613.56L140.71 613.1L138.23 612.54L135.79 611.88L133.39 611.13L131.03 610.29L128.71 609.36L126.43 608.35L124.21 607.25L122.03 606.06L119.91 604.8L117.84 603.46L115.82 602.04L113.86 600.55L111.97 598.98L110.13 597.34L108.36 595.64L106.66 593.87L105.02 592.03L103.45 590.14L101.96 588.18L100.54 586.16L99.2 584.09L97.94 581.97L96.75 579.79L95.65 577.57L94.64 575.29L93.71 572.97L92.87 570.61L92.12 568.21L91.46 565.77L90.9 563.29L90.44 560.77L90.07 558.22L89.81 555.64L89.65 553.03L89.6 550.4L89.6 89.6L89.65 86.97L89.81 84.36L90.07 81.78L90.44 79.23L90.9 76.71L91.46 74.23L92.12 71.79L92.87 69.39L93.71 67.03L94.64 64.71L95.65 62.43L96.75 60.21L97.94 58.03L99.2 55.91L100.54 53.84L101.96 51.82L103.45 49.86L105.02 47.97L106.66 46.13L108.36 44.36L110.13 42.66L111.97 41.02L113.86 39.45L115.82 37.96L117.84 36.54L119.91 35.2L122.03 33.94L124.21 32.75L126.43 31.65L128.71 30.64L131.03 29.71L133.39 28.87L135.79 28.12L138.23 27.46L140.71 26.9L143.23 26.44L145.78 26.07L148.36 25.81L150.97 25.65L153.6 25.6L512 25.6L514.63 25.65L517.24 25.81ZM210.8 115.88L210.8 117L210.8 118.83L210.8 121.31L210.8 124.42L210.8 128.12L210.81 132.35L210.81 137.1L210.81 142.31L210.81 147.95L210.81 153.98L210.81 160.36L210.82 167.04L210.82 174L210.82 181.2L210.83 188.58L210.83 196.12L210.83 203.78L210.84 211.51L210.85 219.28L210.85 227.05L210.86 234.77L210.87 242.42L210.88 249.95L210.89 257.32L210.9 264.49L210.91 271.43L210.92 278.09L210.93 284.43L210.95 290.43L210.96 296.03L210.98 301.2L211 305.9L211.02 310.09L211.03 313.73L211.06 316.78L211.08 319.21L211.1 320.97L211.12 322.03L211.15 322.34L225.29 316.92L238.68 311.97L251.32 307.47L263.25 303.4L274.48 299.74L285.03 296.48L294.93 293.61L304.19 291.1L312.83 288.93L320.89 287.09L328.37 285.57L335.3 284.34L341.7 283.39L347.59 282.71L352.99 282.26L357.93 282.05L362.42 282.04L366.48 282.23L370.13 282.59L373.41 283.11L376.32 283.77L378.88 284.55L381.13 285.45L383.07 286.43L384.74 287.49L386.14 288.6L387.31 289.75L388.26 290.92L389.02 292.1L389.6 293.27L390.02 294.4L390.31 295.49L390.49 296.51L390.58 297.46L390.6 298.3L390.56 299.03L390.5 299.63L390.43 300.08L390.37 300.36L390.35 300.45L390.35 524.1L451.35 524.1L451.35 301.2L451.03 292.35L450.07 284.2L448.51 276.72L446.39 269.89L443.74 263.68L440.59 258.07L436.97 253.04L432.92 248.55L428.47 244.6L423.66 241.14L418.51 238.16L413.07 235.63L407.36 233.53L401.41 231.82L395.27 230.5L388.96 229.53L382.52 228.89L375.98 228.55L369.37 228.5L362.73 228.69L356.08 229.12L349.48 229.75L342.93 230.57L336.49 231.54L330.18 232.64L324.04 233.85L318.1 235.14L312.39 236.49L306.94 237.87L301.8 239.27L296.98 240.64L292.53 241.98L288.48 243.25L284.87 244.43L281.72 245.5L279.06 246.42L276.94 247.19L275.38 247.77L274.43 248.13L274.1 248.26L274.1 115.15L210.8 115.49L210.8 115.88ZM275.65 460.04L211.96 396.34L211.96 523.7L275.65 460.04ZM405.26 115.59L405.14 115.87L404.94 116.32L404.66 116.94L404.31 117.73L403.89 118.67L403.4 119.76L402.83 121L402.2 122.37L401.51 123.87L400.75 125.49L399.93 127.23L399.04 129.08L398.11 131.03L397.11 133.08L396.06 135.21L394.96 137.43L393.8 139.73L392.6 142.09L391.35 144.51L390.05 146.99L388.71 149.52L387.33 152.09L385.91 154.7L384.45 157.33L382.96 159.99L381.43 162.66L379.87 165.34L378.27 168.02L376.65 170.7L375 173.36L373.33 176.01L371.63 178.63L369.91 181.22L368.17 183.77L366.42 186.27L364.64 188.72L362.86 191.12L361.06 193.44L359.24 195.7L426.39 195.7L429.08 192.19L431.68 188.73L434.19 185.33L436.61 181.99L438.94 178.7L441.18 175.48L443.34 172.33L445.42 169.24L447.42 166.21L449.33 163.26L451.16 160.37L452.92 157.56L454.59 154.83L456.19 152.17L457.71 149.58L459.16 147.08L460.54 144.66L461.85 142.32L463.08 140.07L464.24 137.9L465.34 135.82L466.37 133.83L467.33 131.94L468.23 130.13L469.06 128.43L469.84 126.82L470.55 125.31L471.2 123.9L471.79 122.59L472.32 121.39L472.8 120.29L473.22 119.31L473.59 118.43L473.91 117.66L474.17 117.01L474.38 116.47L474.55 116.04L474.66 115.74L474.73 115.56L474.75 115.49L405.3 115.49L405.26 115.59Z" id="j6KehJ6Xth"></path></defs><g><g><g><use xlink:href="#j6KehJ6Xth" opacity="1" fill="#c01a1a" fill-opacity="1"></use><g><use xlink:href="#j6KehJ6Xth" opacity="1" fill-opacity="0" stroke="#000000" stroke-width="1" stroke-opacity="0"></use></g></g></g></g></svg>